<?xml version="1.0" encoding="UTF-8"?>
<!DOCTYPE svg PUBLIC "-//W3C//DTD SVG 1.1//EN" "http://www.w3.org/Graphics/SVG/1.1/DTD/svg11.dtd">
<!-- Creator: CorelDRAW 2018 (64-Bit) -->
<svg xmlns="http://www.w3.org/2000/svg" xml:space="preserve" width="257mm" height="364mm" version="1.1" style="shape-rendering:geometricPrecision; text-rendering:geometricPrecision; image-rendering:optimizeQuality; fill-rule:evenodd; clip-rule:evenodd"
viewBox="0 0 25700 36400"
 xmlns:xlink="http://www.w3.org/1999/xlink">
 <defs>
  <style type="text/css">
   <![CDATA[
    .fil0 {fill:#FEFEFE}
   ]]>
  </style>
 </defs>
 <g id="Layer_x0020_1">
  <metadata id="CorelCorpID_0Corel-Layer"/>
  <path class="fil0" d="M25700 18505.45c0,7451.95 -5103.14,12755.21 -12639.34,12755.21 -7225.5,0 -13060.66,-5835.17 -13060.66,-13060.66 0,-7225.49 5835.16,-13060.66 13060.66,-13060.66 3517.95,0 6477.66,1290.27 8758.01,3417.89l-3554.82 3417.89c-4650.22,-4486.96 -13297.64,-1116.47 -13297.64,6224.88 0,4555.43 3639.08,8247.17 8094.45,8247.17 5171.6,0 7109.63,-3707.54 7415.08,-5629.77l-7415.08 0 0 -4492.23 12433.95 -0.01c121.13,668.83 205.39,1311.33 205.39,2180.29z"/>
 </g>
</svg>
