<?xml version="1.0" encoding="UTF-8"?>
<!DOCTYPE svg PUBLIC "-//W3C//DTD SVG 1.1//EN" "http://www.w3.org/Graphics/SVG/1.1/DTD/svg11.dtd">
<!-- Creator: CorelDRAW 2018 (64-Bit) -->
<svg xmlns="http://www.w3.org/2000/svg" xml:space="preserve" width="257mm" height="364mm" version="1.1" style="shape-rendering:geometricPrecision; text-rendering:geometricPrecision; image-rendering:optimizeQuality; fill-rule:evenodd; clip-rule:evenodd"
viewBox="0 0 25700 36400"
 xmlns:xlink="http://www.w3.org/1999/xlink">
 <defs>
  <style type="text/css">
   <![CDATA[
    .fil0 {fill:#FEFEFE}
   ]]>
  </style>
 </defs>
 <g id="Layer_x0020_1">
  <metadata id="CorelCorpID_0Corel-Layer"/>
  <path class="fil0" d="M23058.22 12965.43c16.31,228.29 16.31,456.63 16.31,684.92 0,6963.09 -5299.77,14986.21 -14986.21,14986.21 -2984.21,0 -5756.4,-864.31 -8088.32,-2364.5 424,48.89 831.64,65.2 1271.95,65.2 2462.33,0 4729.05,-831.64 6539.14,-2250.36 -2315.61,-48.94 -4256.16,-1565.49 -4924.76,-3652.81 326.17,48.89 652.29,81.52 994.77,81.52 472.89,0 945.83,-65.25 1386.09,-179.35 -2413.44,-489.25 -4223.58,-2609.15 -4223.58,-5169.36l0 -65.2c701.18,391.37 1516.6,635.97 2380.81,668.55 -1418.72,-945.83 -2348.19,-2560.21 -2348.19,-4386.62 0,-978.41 260.87,-1875.3 717.49,-2658.04 2592.84,3196.19 6490.25,5283.46 10860.51,5511.8 -81.52,-391.37 -130.46,-799.01 -130.46,-1206.7 0,-2902.69 2348.24,-5267.19 5267.19,-5267.19 1516.55,0 2886.33,635.97 3848.47,1663.32 1190.38,-228.29 2331.87,-668.6 3342.96,-1271.95 -391.42,1223.06 -1223.06,2250.41 -2315.61,2902.64 1059.97,-114.09 2087.32,-407.69 3033.1,-815.32 -717.39,1043.61 -1614.33,1973.08 -2641.68,2723.25l0.02 -0.01z"/>
 </g>
</svg>
